<?xml version="1.0" encoding="UTF-8" standalone="no"?><!-- Generator: Gravit.io --><svg xmlns="http://www.w3.org/2000/svg" xmlns:xlink="http://www.w3.org/1999/xlink" style="isolation:isolate" viewBox="0 0 100 21.5" width="100pt" height="21.5pt"><defs><clipPath id="_clipPath_cOPuSMHmRFhFaML1132eiHiRl62tbvpE"><rect width="100" height="21.5"/></clipPath></defs><g clip-path="url(#_clipPath_cOPuSMHmRFhFaML1132eiHiRl62tbvpE)"><g><path d="M 2.262 -0.02 L 97.738 -0.02 C 98.987 -0.02 100 0.993 100 2.242 L 100 19.258 C 100 20.507 98.987 21.52 97.738 21.52 L 2.262 21.52 C 1.013 21.52 0 20.507 0 19.258 L 0 2.242 C 0 0.993 1.013 -0.02 2.262 -0.02 Z" style="stroke:none;fill:#B8050B;stroke-miterlimit:10;"/><path d=" M 69.753 13.149 L 69.753 6.806 L 71.979 6.806 L 71.979 6.806 Q 72.915 6.806 73.411 7.26 L 73.411 7.26 L 73.411 7.26 Q 73.906 7.715 73.906 8.496 L 73.906 8.496 L 73.906 8.496 Q 73.906 9.041 73.638 9.364 L 73.638 9.364 L 73.638 9.364 Q 73.37 9.687 72.87 9.832 L 72.87 9.832 L 72.87 9.887 L 72.87 9.887 Q 73.461 10.032 73.783 10.396 L 73.783 10.396 L 73.783 10.396 Q 74.106 10.759 74.106 11.404 L 74.106 11.404 L 74.106 11.404 Q 74.106 12.204 73.602 12.677 L 73.602 12.677 L 73.602 12.677 Q 73.097 13.149 72.188 13.149 L 72.188 13.149 L 69.753 13.149 Z  M 71.08 12.195 L 71.77 12.195 L 71.77 12.195 Q 72.261 12.195 72.488 12.031 L 72.488 12.031 L 72.488 12.031 Q 72.715 11.868 72.715 11.432 L 72.715 11.432 L 72.715 11.168 L 72.715 11.168 Q 72.715 10.732 72.488 10.568 L 72.488 10.568 L 72.488 10.568 Q 72.261 10.405 71.77 10.405 L 71.77 10.405 L 71.08 10.405 L 71.08 12.195 Z  M 71.08 9.496 L 71.598 9.496 L 71.598 9.496 Q 72.079 9.496 72.297 9.337 L 72.297 9.337 L 72.297 9.337 Q 72.516 9.178 72.516 8.76 L 72.516 8.76 L 72.516 8.487 L 72.516 8.487 Q 72.516 8.069 72.297 7.915 L 72.297 7.915 L 72.297 7.915 Q 72.079 7.76 71.598 7.76 L 71.598 7.76 L 71.08 7.76 L 71.08 9.496 Z  M 75.124 13.149 L 75.124 12.095 L 76.56 12.095 L 76.56 7.478 L 75.124 7.478 L 75.124 6.424 L 77.905 6.424 L 77.905 12.095 L 79.341 12.095 L 79.341 13.149 L 75.124 13.149 Z  M 82.685 13.258 L 82.685 13.258 L 82.685 13.258 Q 82.14 13.258 81.703 13.09 L 81.703 13.09 L 81.703 13.09 Q 81.267 12.922 80.963 12.604 L 80.963 12.604 L 80.963 12.604 Q 80.658 12.286 80.495 11.831 L 80.495 11.831 L 80.495 11.831 Q 80.331 11.377 80.331 10.805 L 80.331 10.805 L 80.331 10.805 Q 80.331 10.232 80.495 9.778 L 80.495 9.778 L 80.495 9.778 Q 80.658 9.323 80.963 9.005 L 80.963 9.005 L 80.963 9.005 Q 81.267 8.687 81.703 8.519 L 81.703 8.519 L 81.703 8.519 Q 82.14 8.351 82.685 8.351 L 82.685 8.351 L 82.685 8.351 Q 83.23 8.351 83.666 8.519 L 83.666 8.519 L 83.666 8.519 Q 84.103 8.687 84.407 9.005 L 84.407 9.005 L 84.407 9.005 Q 84.712 9.323 84.875 9.778 L 84.875 9.778 L 84.875 9.778 Q 85.039 10.232 85.039 10.805 L 85.039 10.805 L 85.039 10.805 Q 85.039 11.377 84.875 11.831 L 84.875 11.831 L 84.875 11.831 Q 84.712 12.286 84.407 12.604 L 84.407 12.604 L 84.407 12.604 Q 84.103 12.922 83.666 13.09 L 83.666 13.09 L 83.666 13.09 Q 83.23 13.258 82.685 13.258 Z  M 82.685 12.259 L 82.685 12.259 L 82.685 12.259 Q 83.139 12.259 83.394 11.977 L 83.394 11.977 L 83.394 11.977 Q 83.648 11.695 83.648 11.177 L 83.648 11.177 L 83.648 10.432 L 83.648 10.432 Q 83.648 9.914 83.394 9.632 L 83.394 9.632 L 83.394 9.632 Q 83.139 9.35 82.685 9.35 L 82.685 9.35 L 82.685 9.35 Q 82.231 9.35 81.976 9.632 L 81.976 9.632 L 81.976 9.632 Q 81.722 9.914 81.722 10.432 L 81.722 10.432 L 81.722 11.177 L 81.722 11.177 Q 81.722 11.695 81.976 11.977 L 81.976 11.977 L 81.976 11.977 Q 82.231 12.259 82.685 12.259 Z  M 90.71 13.622 L 90.71 13.622 L 90.71 13.622 Q 90.71 14.367 90.083 14.721 L 90.083 14.721 L 90.083 14.721 Q 89.456 15.076 88.111 15.076 L 88.111 15.076 L 88.111 15.076 Q 87.438 15.076 87.002 14.999 L 87.002 14.999 L 87.002 14.999 Q 86.566 14.921 86.307 14.776 L 86.307 14.776 L 86.307 14.776 Q 86.048 14.631 85.943 14.431 L 85.943 14.431 L 85.943 14.431 Q 85.839 14.231 85.839 13.994 L 85.839 13.994 L 85.839 13.994 Q 85.839 13.595 86.075 13.39 L 86.075 13.39 L 86.075 13.39 Q 86.311 13.186 86.738 13.077 L 86.738 13.077 L 86.738 13.022 L 86.738 13.022 Q 86.438 12.931 86.261 12.763 L 86.261 12.763 L 86.261 12.763 Q 86.084 12.595 86.084 12.286 L 86.084 12.286 L 86.084 12.286 Q 86.084 11.941 86.316 11.777 L 86.316 11.777 L 86.316 11.777 Q 86.547 11.613 86.929 11.522 L 86.929 11.522 L 86.929 11.468 L 86.929 11.468 Q 86.511 11.268 86.279 10.904 L 86.279 10.904 L 86.279 10.904 Q 86.048 10.541 86.048 10.023 L 86.048 10.023 L 86.048 10.023 Q 86.048 9.614 86.193 9.3 L 86.193 9.3 L 86.193 9.3 Q 86.338 8.987 86.606 8.778 L 86.606 8.778 L 86.606 8.778 Q 86.875 8.569 87.247 8.46 L 87.247 8.46 L 87.247 8.46 Q 87.62 8.351 88.083 8.351 L 88.083 8.351 L 88.083 8.351 Q 88.529 8.351 88.91 8.451 L 88.91 8.451 L 88.91 8.196 L 88.91 8.196 Q 88.91 7.924 89.101 7.742 L 89.101 7.742 L 89.101 7.742 Q 89.292 7.56 89.628 7.56 L 89.628 7.56 L 90.455 7.56 L 90.455 8.542 L 89.328 8.542 L 89.328 8.623 L 89.328 8.623 Q 89.71 8.823 89.924 9.173 L 89.924 9.173 L 89.924 9.173 Q 90.137 9.523 90.137 10.023 L 90.137 10.023 L 90.137 10.023 Q 90.137 10.432 89.992 10.741 L 89.992 10.741 L 89.992 10.741 Q 89.846 11.05 89.574 11.263 L 89.574 11.263 L 89.574 11.263 Q 89.301 11.477 88.924 11.586 L 88.924 11.586 L 88.924 11.586 Q 88.547 11.695 88.083 11.695 L 88.083 11.695 L 88.083 11.695 Q 87.874 11.695 87.683 11.672 L 87.683 11.672 L 87.683 11.672 Q 87.493 11.65 87.32 11.604 L 87.32 11.604 L 87.32 11.604 Q 87.22 11.659 87.152 11.741 L 87.152 11.741 L 87.152 11.741 Q 87.084 11.822 87.084 11.95 L 87.084 11.95 L 87.084 11.95 Q 87.084 12.059 87.138 12.122 L 87.138 12.122 L 87.138 12.122 Q 87.193 12.186 87.288 12.218 L 87.288 12.218 L 87.288 12.218 Q 87.383 12.25 87.511 12.259 L 87.511 12.259 L 87.511 12.259 Q 87.638 12.268 87.774 12.268 L 87.774 12.268 L 88.847 12.268 L 88.847 12.268 Q 89.346 12.268 89.701 12.368 L 89.701 12.368 L 89.701 12.368 Q 90.055 12.468 90.283 12.649 L 90.283 12.649 L 90.283 12.649 Q 90.51 12.831 90.61 13.077 L 90.61 13.077 L 90.61 13.077 Q 90.71 13.322 90.71 13.622 Z  M 89.437 13.722 L 89.437 13.722 L 89.437 13.722 Q 89.437 13.54 89.292 13.436 L 89.292 13.436 L 89.292 13.436 Q 89.147 13.331 88.738 13.331 L 88.738 13.331 L 87.129 13.331 L 87.129 13.331 Q 86.947 13.485 86.947 13.713 L 86.947 13.713 L 86.947 13.713 Q 86.947 13.931 87.134 14.072 L 87.134 14.072 L 87.134 14.072 Q 87.32 14.213 87.765 14.213 L 87.765 14.213 L 88.556 14.213 L 88.556 14.213 Q 89.019 14.213 89.228 14.085 L 89.228 14.085 L 89.228 14.085 Q 89.437 13.958 89.437 13.722 Z  M 88.083 10.841 L 88.083 10.841 L 88.083 10.841 Q 88.492 10.841 88.679 10.641 L 88.679 10.641 L 88.679 10.641 Q 88.865 10.441 88.865 10.132 L 88.865 10.132 L 88.865 9.914 L 88.865 9.914 Q 88.865 9.605 88.679 9.405 L 88.679 9.405 L 88.679 9.405 Q 88.492 9.205 88.083 9.205 L 88.083 9.205 L 88.083 9.205 Q 87.683 9.205 87.502 9.405 L 87.502 9.405 L 87.502 9.405 Q 87.32 9.605 87.32 9.914 L 87.32 9.914 L 87.32 10.132 L 87.32 10.132 Q 87.32 10.441 87.502 10.641 L 87.502 10.641 L 87.502 10.641 Q 87.683 10.841 88.083 10.841 Z  M 35.818 13.149 L 31.72 13.149 L 31.72 6.806 L 33.092 6.806 L 33.092 12.031 L 35.818 12.031 L 35.818 13.149 Z  M 39.853 13.149 L 39.853 12.295 L 39.799 12.295 L 39.799 12.295 Q 39.644 12.695 39.313 12.977 L 39.313 12.977 L 39.313 12.977 Q 38.981 13.258 38.417 13.258 L 38.417 13.258 L 38.417 13.258 Q 38.081 13.258 37.799 13.145 L 37.799 13.145 L 37.799 13.145 Q 37.518 13.031 37.318 12.804 L 37.318 12.804 L 37.318 12.804 Q 37.118 12.577 37.004 12.25 L 37.004 12.25 L 37.004 12.25 Q 36.891 11.922 36.891 11.495 L 36.891 11.495 L 36.891 8.46 L 38.236 8.46 L 38.236 11.313 L 38.236 11.313 Q 38.236 12.222 39.026 12.222 L 39.026 12.222 L 39.026 12.222 Q 39.181 12.222 39.331 12.181 L 39.331 12.181 L 39.331 12.181 Q 39.481 12.14 39.594 12.054 L 39.594 12.054 L 39.594 12.054 Q 39.708 11.968 39.781 11.841 L 39.781 11.841 L 39.781 11.841 Q 39.853 11.713 39.853 11.541 L 39.853 11.541 L 39.853 8.46 L 41.198 8.46 L 41.198 13.149 L 39.853 13.149 Z  M 44.461 13.258 L 44.461 13.258 L 44.461 13.258 Q 43.679 13.258 43.102 13.022 L 43.102 13.022 L 43.102 13.022 Q 42.525 12.786 42.234 12.377 L 42.234 12.377 L 42.989 11.677 L 42.989 11.677 Q 43.261 11.977 43.629 12.145 L 43.629 12.145 L 43.629 12.145 Q 43.997 12.313 44.47 12.313 L 44.47 12.313 L 44.47 12.313 Q 44.87 12.313 45.097 12.19 L 45.097 12.19 L 45.097 12.19 Q 45.324 12.068 45.324 11.813 L 45.324 11.813 L 45.324 11.813 Q 45.324 11.613 45.17 11.536 L 45.17 11.536 L 45.17 11.536 Q 45.015 11.459 44.743 11.413 L 44.743 11.413 L 43.988 11.295 L 43.988 11.295 Q 43.67 11.25 43.398 11.154 L 43.398 11.154 L 43.398 11.154 Q 43.125 11.059 42.925 10.895 L 42.925 10.895 L 42.925 10.895 Q 42.725 10.732 42.607 10.496 L 42.607 10.496 L 42.607 10.496 Q 42.489 10.259 42.489 9.923 L 42.489 9.923 L 42.489 9.923 Q 42.489 9.187 43.052 8.769 L 43.052 8.769 L 43.052 8.769 Q 43.616 8.351 44.634 8.351 L 44.634 8.351 L 44.634 8.351 Q 45.324 8.351 45.81 8.537 L 45.81 8.537 L 45.81 8.537 Q 46.297 8.723 46.587 9.069 L 46.587 9.069 L 45.915 9.832 L 45.915 9.832 Q 45.706 9.605 45.379 9.45 L 45.379 9.45 L 45.379 9.45 Q 45.052 9.296 44.588 9.296 L 44.588 9.296 L 44.588 9.296 Q 43.807 9.296 43.807 9.768 L 43.807 9.768 L 43.807 9.768 Q 43.807 9.978 43.961 10.055 L 43.961 10.055 L 43.961 10.055 Q 44.116 10.132 44.388 10.177 L 44.388 10.177 L 45.133 10.296 L 45.133 10.296 Q 45.451 10.341 45.724 10.436 L 45.724 10.436 L 45.724 10.436 Q 45.997 10.532 46.201 10.695 L 46.201 10.695 L 46.201 10.695 Q 46.406 10.859 46.524 11.095 L 46.524 11.095 L 46.524 11.095 Q 46.642 11.332 46.642 11.668 L 46.642 11.668 L 46.642 11.668 Q 46.642 12.404 46.074 12.831 L 46.074 12.831 L 46.074 12.831 Q 45.506 13.258 44.461 13.258 Z  M 52.44 13.149 L 51.668 13.149 L 51.668 13.149 Q 51.25 13.149 50.995 12.936 L 50.995 12.936 L 50.995 12.936 Q 50.741 12.722 50.695 12.322 L 50.695 12.322 L 50.65 12.322 L 50.65 12.322 Q 50.523 12.786 50.145 13.022 L 50.145 13.022 L 50.145 13.022 Q 49.768 13.258 49.223 13.258 L 49.223 13.258 L 49.223 13.258 Q 48.541 13.258 48.128 12.89 L 48.128 12.89 L 48.128 12.89 Q 47.714 12.522 47.714 11.859 L 47.714 11.859 L 47.714 11.859 Q 47.714 11.123 48.251 10.768 L 48.251 10.768 L 48.251 10.768 Q 48.787 10.414 49.823 10.414 L 49.823 10.414 L 50.577 10.414 L 50.577 10.177 L 50.577 10.177 Q 50.577 9.759 50.382 9.546 L 50.382 9.546 L 50.382 9.546 Q 50.186 9.332 49.723 9.332 L 49.723 9.332 L 49.723 9.332 Q 49.296 9.332 49.032 9.496 L 49.032 9.496 L 49.032 9.496 Q 48.769 9.659 48.578 9.923 L 48.578 9.923 L 47.842 9.269 L 47.842 9.269 Q 48.078 8.869 48.582 8.61 L 48.582 8.61 L 48.582 8.61 Q 49.087 8.351 49.877 8.351 L 49.877 8.351 L 49.877 8.351 Q 50.841 8.351 51.381 8.792 L 51.381 8.792 L 51.381 8.792 Q 51.922 9.232 51.922 10.123 L 51.922 10.123 L 51.922 12.177 L 52.44 12.177 L 52.44 13.149 Z  M 49.732 12.377 L 49.732 12.377 L 49.732 12.377 Q 50.086 12.377 50.332 12.204 L 50.332 12.204 L 50.332 12.204 Q 50.577 12.031 50.577 11.704 L 50.577 11.704 L 50.577 11.141 L 49.859 11.141 L 49.859 11.141 Q 49.032 11.141 49.032 11.695 L 49.032 11.695 L 49.032 11.877 L 49.032 11.877 Q 49.032 12.122 49.223 12.25 L 49.223 12.25 L 49.223 12.25 Q 49.414 12.377 49.732 12.377 Z  M 55.612 13.258 L 55.612 13.258 L 55.612 13.258 Q 55.057 13.258 54.617 13.09 L 54.617 13.09 L 54.617 13.09 Q 54.176 12.922 53.872 12.604 L 53.872 12.604 L 53.872 12.604 Q 53.567 12.286 53.403 11.831 L 53.403 11.831 L 53.403 11.831 Q 53.24 11.377 53.24 10.805 L 53.24 10.805 L 53.24 10.805 Q 53.24 10.232 53.403 9.778 L 53.403 9.778 L 53.403 9.778 Q 53.567 9.323 53.872 9.005 L 53.872 9.005 L 53.872 9.005 Q 54.176 8.687 54.617 8.519 L 54.617 8.519 L 54.617 8.519 Q 55.057 8.351 55.603 8.351 L 55.603 8.351 L 55.603 8.351 Q 56.375 8.351 56.843 8.664 L 56.843 8.664 L 56.843 8.664 Q 57.311 8.978 57.557 9.496 L 57.557 9.496 L 56.521 10.059 L 56.521 10.059 Q 56.393 9.787 56.189 9.605 L 56.189 9.605 L 56.189 9.605 Q 55.984 9.423 55.603 9.423 L 55.603 9.423 L 55.603 9.423 Q 55.139 9.423 54.889 9.691 L 54.889 9.691 L 54.889 9.691 Q 54.639 9.959 54.639 10.423 L 54.639 10.423 L 54.639 11.186 L 54.639 11.186 Q 54.639 11.65 54.889 11.918 L 54.889 11.918 L 54.889 11.918 Q 55.139 12.186 55.621 12.186 L 55.621 12.186 L 55.621 12.186 Q 56.012 12.186 56.234 12.004 L 56.234 12.004 L 56.234 12.004 Q 56.457 11.822 56.612 11.532 L 56.612 11.532 L 57.629 12.113 L 57.629 12.113 Q 57.375 12.631 56.889 12.945 L 56.889 12.945 L 56.889 12.945 Q 56.402 13.258 55.612 13.258 Z  M 63.346 13.149 L 62.573 13.149 L 62.573 13.149 Q 62.155 13.149 61.901 12.936 L 61.901 12.936 L 61.901 12.936 Q 61.646 12.722 61.601 12.322 L 61.601 12.322 L 61.555 12.322 L 61.555 12.322 Q 61.428 12.786 61.051 13.022 L 61.051 13.022 L 61.051 13.022 Q 60.674 13.258 60.129 13.258 L 60.129 13.258 L 60.129 13.258 Q 59.447 13.258 59.033 12.89 L 59.033 12.89 L 59.033 12.89 Q 58.62 12.522 58.62 11.859 L 58.62 11.859 L 58.62 11.859 Q 58.62 11.123 59.156 10.768 L 59.156 10.768 L 59.156 10.768 Q 59.692 10.414 60.728 10.414 L 60.728 10.414 L 61.483 10.414 L 61.483 10.177 L 61.483 10.177 Q 61.483 9.759 61.287 9.546 L 61.287 9.546 L 61.287 9.546 Q 61.092 9.332 60.628 9.332 L 60.628 9.332 L 60.628 9.332 Q 60.201 9.332 59.938 9.496 L 59.938 9.496 L 59.938 9.496 Q 59.674 9.659 59.483 9.923 L 59.483 9.923 L 58.747 9.269 L 58.747 9.269 Q 58.983 8.869 59.488 8.61 L 59.488 8.61 L 59.488 8.61 Q 59.992 8.351 60.783 8.351 L 60.783 8.351 L 60.783 8.351 Q 61.746 8.351 62.287 8.792 L 62.287 8.792 L 62.287 8.792 Q 62.828 9.232 62.828 10.123 L 62.828 10.123 L 62.828 12.177 L 63.346 12.177 L 63.346 13.149 Z  M 60.637 12.377 L 60.637 12.377 L 60.637 12.377 Q 60.992 12.377 61.237 12.204 L 61.237 12.204 L 61.237 12.204 Q 61.483 12.031 61.483 11.704 L 61.483 11.704 L 61.483 11.141 L 60.765 11.141 L 60.765 11.141 Q 59.938 11.141 59.938 11.695 L 59.938 11.695 L 59.938 11.877 L 59.938 11.877 Q 59.938 12.122 60.129 12.25 L 60.129 12.25 L 60.129 12.25 Q 60.319 12.377 60.637 12.377 Z  M 14.307 7.924 L 12.48 7.924 L 12.48 13.149 L 11.117 13.149 L 11.117 7.924 L 9.29 7.924 L 9.29 6.806 L 14.307 6.806 L 14.307 7.924 Z  M 15.116 13.149 L 15.116 6.424 L 16.461 6.424 L 16.461 9.314 L 16.515 9.314 L 16.515 9.314 Q 16.597 9.114 16.715 8.941 L 16.715 8.941 L 16.715 8.941 Q 16.833 8.769 17.002 8.637 L 17.002 8.637 L 17.002 8.637 Q 17.17 8.505 17.392 8.428 L 17.392 8.428 L 17.392 8.428 Q 17.615 8.351 17.897 8.351 L 17.897 8.351 L 17.897 8.351 Q 18.233 8.351 18.515 8.464 L 18.515 8.464 L 18.515 8.464 Q 18.796 8.578 18.996 8.805 L 18.996 8.805 L 18.996 8.805 Q 19.196 9.032 19.31 9.36 L 19.31 9.36 L 19.31 9.36 Q 19.423 9.687 19.423 10.114 L 19.423 10.114 L 19.423 13.149 L 18.078 13.149 L 18.078 10.296 L 18.078 10.296 Q 18.078 9.387 17.288 9.387 L 17.288 9.387 L 17.288 9.387 Q 17.133 9.387 16.983 9.428 L 16.983 9.428 L 16.983 9.428 Q 16.833 9.469 16.715 9.555 L 16.715 9.555 L 16.715 9.555 Q 16.597 9.641 16.529 9.768 L 16.529 9.768 L 16.529 9.768 Q 16.461 9.896 16.461 10.068 L 16.461 10.068 L 16.461 13.149 L 15.116 13.149 Z  M 22.831 13.258 L 22.831 13.258 L 22.831 13.258 Q 21.65 13.258 21.041 12.604 L 21.041 12.604 L 21.041 12.604 Q 20.432 11.95 20.432 10.823 L 20.432 10.823 L 20.432 10.823 Q 20.432 10.25 20.591 9.791 L 20.591 9.791 L 20.591 9.791 Q 20.75 9.332 21.046 9.01 L 21.046 9.01 L 21.046 9.01 Q 21.341 8.687 21.764 8.519 L 21.764 8.519 L 21.764 8.519 Q 22.186 8.351 22.713 8.351 L 22.713 8.351 L 22.713 8.351 Q 23.24 8.351 23.658 8.519 L 23.658 8.519 L 23.658 8.519 Q 24.076 8.687 24.367 8.996 L 24.367 8.996 L 24.367 8.996 Q 24.658 9.305 24.817 9.746 L 24.817 9.746 L 24.817 9.746 Q 24.976 10.187 24.976 10.732 L 24.976 10.732 L 24.976 11.132 L 21.768 11.132 L 21.768 11.213 L 21.768 11.213 Q 21.768 11.668 22.05 11.945 L 22.05 11.945 L 22.05 11.945 Q 22.332 12.222 22.877 12.222 L 22.877 12.222 L 22.877 12.222 Q 23.295 12.222 23.595 12.063 L 23.595 12.063 L 23.595 12.063 Q 23.895 11.904 24.113 11.641 L 24.113 11.641 L 24.84 12.431 L 24.84 12.431 Q 24.567 12.768 24.076 13.013 L 24.076 13.013 L 24.076 13.013 Q 23.586 13.258 22.831 13.258 Z  M 22.722 9.314 L 22.722 9.314 L 22.722 9.314 Q 22.286 9.314 22.027 9.582 L 22.027 9.582 L 22.027 9.582 Q 21.768 9.85 21.768 10.305 L 21.768 10.305 L 21.768 10.377 L 23.658 10.377 L 23.658 10.305 L 23.658 10.305 Q 23.658 9.841 23.409 9.578 L 23.409 9.578 L 23.409 9.578 Q 23.159 9.314 22.722 9.314 Z " fill="rgb(255,255,255)"/></g></g></svg>